<svg viewBox="0 0 100 100" xmlns="http://www.w3.org/2000/svg">
  <defs>
    <style>
      .mic-icon-path {
        fill: #333333; /* Default for light mode */
      }
      @media (prefers-color-scheme: dark) {
        .mic-icon-path {
          fill: #E0E0E0; /* For dark mode */
        }
      }
    </style>
  </defs>
  <path class="mic-icon-path" d="M50,68c-8.3,0-15-6.7-15-15V27c0-8.3,6.7-15,15-15s15,6.7,15,15V53C65,61.3,58.3,68,50,68z M40,27c0-5.5,4.5-10,10-10s10,4.5,10,10v26c0,5.5-4.5,10-10,10s-10-4.5-10-10V27z"/>
  <path class="mic-icon-path" d="M50,78c12.7,0,23-10.3,23-23h-5c0,9.9-8.1,18-18,18s-18-8.1-18-18h-5C27,67.7,37.3,78,50,78z"/>
  <path class="mic-icon-path" d="M47,77h6v11h-6z"/>
  <rect class="mic-icon-path" x="35" y="88" width="30" height="5" rx="2.5"/>
</svg>